<?xml version="1.0" encoding="UTF-8"?>
<svg width="193px" height="38px" viewBox="0 0 193 38" version="1.1" xmlns="http://www.w3.org/2000/svg" xmlns:xlink="http://www.w3.org/1999/xlink">
    <g id="[BRANDED]-Unbounce-Landing-Page-Template" stroke="none" stroke-width="1" fill="none" fill-rule="evenodd">
        <g id="Landing_Page_Template-V1" transform="translate(-22.000000, -51.000000)" fill="#64748b" fill-rule="nonzero">
            <g id="unbounce-logo" transform="translate(22.000000, 51.000000)">
                <path d="M184.672407,27.4523364 C187.424444,27.4523364 190.212222,26.528972 192.249444,24.9308411 C192.285185,24.8953271 192.285185,24.8598131 192.249444,24.8598131 L190.247963,22.4448598 C190.212222,22.4093458 190.176481,22.4093458 190.176481,22.4448598 C188.496667,23.6168224 186.673889,24.2205607 184.743889,24.2205607 C181.848889,24.2205607 180.097593,22.871028 179.668704,20.3495327 L179.632963,20.0654206 L192.678333,20.0654206 L192.678333,19.1775701 C192.678333,14.4186916 188.818333,10.5121495 184.100556,10.4766355 C184.064815,10.4766355 184.029074,10.4766355 183.993333,10.4766355 C181.42,10.4766355 179.132593,11.328972 177.524259,12.9271028 C175.987407,14.4542056 175.12963,16.6205607 175.12963,18.964486 C175.16537,24.1140187 178.882407,27.4523364 184.672407,27.4523364 Z M179.99037,16.6915888 C180.597963,14.8093458 182.027593,13.7794393 183.993333,13.7794393 C185.959074,13.7794393 187.352963,14.8093458 187.996296,16.6915888 C188.067778,16.8691589 188.032037,17.046729 187.924815,17.188785 C187.817593,17.3308411 187.638889,17.4373832 187.460185,17.4373832 L180.562222,17.4373832 C180.383519,17.4373832 180.204815,17.3308411 180.097593,17.188785 C179.95463,17.046729 179.918889,16.8691589 179.99037,16.6915888 Z" id="e_3_"></path>
                <path d="M158.367222,19.035514 C158.367222,23.8654206 162.298704,27.5233645 167.552593,27.5233645 C170.125926,27.5233645 172.484815,26.635514 174.20037,25.0018692 L174.20037,24.8953271 L171.77,22.2672897 C170.840741,23.4392523 169.37537,24.1495327 167.838519,24.1495327 C167.052222,24.1495327 166.301667,23.9719626 165.586852,23.6168224 C165.551111,23.6168224 165.51537,23.5813084 165.47963,23.5457944 L165.443889,23.5102804 L165.372407,23.4747664 C164.371667,22.9775701 163.54963,22.0897196 163.120741,21.0242991 C163.013519,20.7757009 162.942037,20.5271028 162.870556,20.2429907 C162.834815,20.1009346 162.799074,19.9943925 162.799074,19.8878505 L162.763333,19.7102804 C162.763333,19.6392523 162.727593,19.5327103 162.727593,19.4616822 C162.727593,19.3551402 162.727593,19.2485981 162.727593,19.1420561 C162.727593,19.071028 162.727593,19.035514 162.727593,19.035514 C162.727593,18.928972 162.727593,18.8224299 162.727593,18.7158879 L162.727593,18.6448598 C162.727593,18.6093458 162.727593,18.6093458 162.727593,18.5738318 C162.799074,18.0056075 162.942037,17.4018692 163.192222,16.8691589 C163.227963,16.7981308 163.263704,16.6915888 163.299444,16.6205607 C163.764074,15.6971963 164.478889,15.0224299 165.336667,14.5607477 C166.087222,14.1345794 166.945,13.9214953 167.838519,13.9214953 C169.37537,13.9214953 170.805,14.5962617 171.805741,15.8037383 L174.236111,13.1046729 C172.520556,11.471028 170.125926,10.5476636 167.516852,10.5476636 C162.298704,10.5476636 158.367222,14.2056075 158.367222,19.035514 Z" id="c_3_"></path>
                <path d="M155.936852,26.7420561 L155.936852,18.4672897 C155.793889,14.7028037 154.757407,11.2224299 148.431296,11.2224299 C147.108889,11.2224299 145.929444,11.4 144.928704,11.7906542 L144.571296,11.9327103 L144.571296,11.2934579 C144.571296,11.2579439 144.535556,11.2579439 144.535556,11.2579439 L140.997222,11.2579439 C140.961481,11.2579439 140.961481,11.2934579 140.961481,11.2934579 L140.961481,26.7420561 C140.961481,26.7775701 140.997222,26.8130841 141.032963,26.8130841 L145.107407,26.8130841 C145.143148,26.8130841 145.178889,26.7775701 145.178889,26.7420561 L145.178889,18.0411215 C145.178889,17.5439252 145.25037,17.082243 145.357593,16.6560748 C145.822222,15.4485981 147.073148,14.5962617 148.467037,14.5607477 C149.825185,14.5607477 151.111852,15.4130841 151.576481,16.6205607 C151.719444,17.046729 151.755185,17.5084112 151.755185,18.0056075 L151.755185,26.7065421 C151.755185,26.7420561 151.790926,26.7775701 151.826667,26.7775701 L155.901111,26.7775701 C155.901111,26.8130841 155.936852,26.7775701 155.936852,26.7420561 Z" id="n_7_"></path>
                <path d="M122.447778,11.2934579 L122.447778,19.6037383 C122.590741,23.3682243 123.627222,26.8485981 129.953333,26.8485981 C136.386667,26.8485981 137.315926,22.5869159 137.458889,19.4261682 L137.458889,11.2934579 C137.458889,11.2579439 137.423148,11.2224299 137.387407,11.2224299 L133.312963,11.2224299 C133.277222,11.2224299 133.241481,11.2579439 133.241481,11.2934579 L133.241481,19.9943925 C133.241481,20.4915888 133.17,20.953271 133.062778,21.3794393 C132.598148,22.5869159 131.347222,23.4392523 129.953333,23.4747664 C128.595185,23.4747664 127.308519,22.6224299 126.843889,21.4149533 C126.700926,20.988785 126.665185,20.5271028 126.665185,20.0299065 L126.665185,11.2934579 C126.665185,11.2579439 126.629444,11.2224299 126.593704,11.2224299 L122.519259,11.2224299 C122.483519,11.2224299 122.447778,11.2579439 122.447778,11.2934579 Z" id="u_7_"></path>
                <path d="M110.617593,10.4766355 C105.399444,10.4766355 101.432222,14.1345794 101.432222,18.964486 C101.432222,23.7943925 105.363704,27.4523364 110.617593,27.4523364 C115.871481,27.4523364 119.838704,23.7943925 119.838704,18.964486 C119.838704,14.0990654 115.871481,10.4766355 110.617593,10.4766355 Z M110.617593,23.9364486 C107.901296,23.9364486 105.828333,21.8056075 105.828333,18.964486 C105.828333,16.1588785 107.937037,13.9925234 110.617593,13.9925234 C113.333889,13.9925234 115.442593,16.1943925 115.442593,18.964486 C115.442593,21.7345794 113.298148,23.9364486 110.617593,23.9364486 Z" id="o_3_"></path>
                <path d="M91.8537037,27.1682243 C96.1783333,27.1682243 99.4664815,23.6168224 99.4664815,18.928972 C99.4664815,14.2766355 96.1425926,10.6186916 91.8537037,10.6186916 C89.5662963,10.6186916 87.4933333,11.5420561 86.027963,13.246729 L85.5633333,13.7439252 L85.5633333,3.37383178 C85.5633333,3.33831776 85.5275926,3.30280374 85.4918519,3.30280374 L81.4174074,3.30280374 C81.3816667,3.30280374 81.3459259,3.33831776 81.3459259,3.37383178 L81.3459259,26.7420561 C81.3459259,26.7775701 81.3816667,26.8130841 81.4174074,26.8130841 L85.2416667,26.8130841 C85.2774074,26.8130841 85.3131481,26.7775701 85.3131481,26.7420561 L85.3131481,23.8299065 L85.7777778,24.3626168 C87.2431481,26.1738318 89.3875926,27.1682243 91.8537037,27.1682243 Z M90.9601852,14.1700935 C93.6764815,14.1700935 95.677963,16.1588785 95.677963,18.8934579 C95.677963,21.5925234 93.6407407,23.6168224 90.9601852,23.6168224 C88.2796296,23.6168224 86.1709259,21.5570093 86.1709259,18.928972 C86.1709259,16.2299065 88.2438889,14.1700935 90.9601852,14.1700935 Z" id="b_3_"></path>
                <path d="M78.0577778,26.8130841 C78.0935185,26.8130841 78.1292593,26.7775701 78.1292593,26.7420561 L78.1292593,18.4672897 C77.9862963,14.7028037 76.9498148,11.2224299 70.6237037,11.2224299 C69.3012963,11.2224299 68.1218519,11.4 67.1211111,11.7906542 L66.7637037,11.9327103 L66.7637037,11.2934579 C66.7637037,11.2579439 66.727963,11.2579439 66.6922222,11.2579439 L63.1538889,11.2579439 C63.1181481,11.2579439 63.1181481,11.2934579 63.1181481,11.2934579 L63.1181481,26.7420561 C63.1181481,26.7775701 63.1538889,26.8130841 63.1896296,26.8130841 L67.2640741,26.8130841 C67.2998148,26.8130841 67.3355556,26.7775701 67.3355556,26.7420561 L67.3355556,18.0411215 C67.3355556,17.5439252 67.407037,17.082243 67.5142593,16.6560748 C67.9788889,15.4485981 69.2298148,14.5962617 70.6237037,14.5607477 C71.9818519,14.5607477 73.2685185,15.4130841 73.7331481,16.6205607 C73.8761111,17.046729 73.9118519,17.5084112 73.9118519,18.0056075 L73.9118519,26.7065421 C73.9118519,26.7420561 73.9475926,26.7775701 73.9833333,26.7775701 L78.0577778,26.7775701 L78.0577778,26.8130841 Z" id="n_6_"></path>
                <path d="M44.8903704,11.2934579 L44.8903704,19.6037383 C45.0333333,23.3682243 46.0698148,26.8485981 52.3959259,26.8485981 C58.8292593,26.8485981 59.7585185,22.5869159 59.9014815,19.4261682 L59.9014815,11.2934579 C59.9014815,11.2579439 59.8657407,11.2224299 59.83,11.2224299 L55.7555556,11.2224299 C55.7198148,11.2224299 55.6840741,11.2579439 55.6840741,11.2934579 L55.6840741,19.9943925 C55.6840741,20.4915888 55.6125926,20.953271 55.5053704,21.3794393 C55.0407407,22.5869159 53.7898148,23.4392523 52.3959259,23.4747664 C51.0377778,23.4747664 49.7511111,22.6224299 49.2864815,21.4149533 C49.1435185,20.988785 49.1077778,20.5271028 49.1077778,20.0299065 L49.1077778,11.2934579 C49.1077778,11.2579439 49.072037,11.2224299 49.0362963,11.2224299 L44.9618519,11.2224299 C44.8903704,11.2224299 44.8903704,11.2579439 44.8903704,11.2934579 Z" id="u_6_"></path>
                <g id="Symbol_3_">
                    <path d="M19.2285185,0.106542056 C8.72074074,0.106542056 0.214444444,8.5588785 0.214444444,19 C0.214444444,29.4411215 8.72074074,37.8934579 19.2285185,37.8934579 C29.7362963,37.8934579 38.2425926,29.4411215 38.2425926,19 C38.2425926,8.5588785 29.7362963,0.106542056 19.2285185,0.106542056 Z M18.5494444,26.4224299 L17.1555556,30.5065421 C17.1198148,30.6485981 17.0483333,30.7551402 16.9768519,30.8616822 C16.7981481,31.1457944 16.5837037,31.3588785 16.2977778,31.5009346 C16.0475926,31.6429907 15.7616667,31.7140187 15.4757407,31.7140187 C15.297037,31.7140187 15.0825926,31.6785047 14.9038889,31.6074766 C14.1175926,31.3233645 13.6172222,30.5420561 13.7244444,29.7607477 C9.79296296,27.7719626 7.11240741,23.6878505 7.11240741,19 C7.11240741,12.3233645 12.545,6.88971963 19.3,6.88971963 C20.0862963,6.88971963 20.8368519,6.96074766 21.5874074,7.10280374 C22.0162963,6.42803738 22.8740741,6.10841121 23.6603704,6.35700935 C24.0892593,6.49906542 24.4109259,6.78317757 24.6253704,7.13831776 C24.8040741,7.45794393 24.9112963,7.81308411 24.8755556,8.20373832 C24.8755556,8.34579439 24.8398148,8.48785047 24.8040741,8.59439252 L23.4101852,12.6785047 L18.5494444,26.4224299 Z M20.0862963,31.0747664 L21.7661111,26.0317757 C24.6611111,25.0018692 26.7340741,22.2672897 26.7340741,19 C26.7340741,17.4728972 26.2694444,16.0168224 25.4474074,14.8448598 L27.1272222,9.80186916 C29.7362963,12.0037383 31.4161111,15.3065421 31.4161111,19 C31.3803704,25.3925234 26.4124074,30.6130841 20.0862963,31.0747664 Z" id="Shape"></path>
                    <path d="M11.722963,19 C11.722963,21.6280374 13.1168519,23.9364486 15.1898148,25.2859813 L19.9075926,11.5775701 C19.6931481,11.5420561 19.442963,11.5420561 19.2285185,11.5420561 C15.0825926,11.5420561 11.722963,14.8803738 11.722963,19 Z" id="Shape"></path>
                </g>
            </g>
        </g>
    </g>
</svg>